<?xml version="1.0" standalone="no"?>
<!DOCTYPE svg PUBLIC "-//W3C//DTD SVG 20010904//EN"
 "http://www.w3.org/TR/2001/REC-SVG-20010904/DTD/svg10.dtd">
<svg version="1.0" xmlns="http://www.w3.org/2000/svg"
 width="100.000000pt" height="100.000000pt" viewBox="0 0 100.000000 100.000000"
 preserveAspectRatio="xMidYMid meet">

<g transform="translate(0.000000,100.000000) scale(0.100000,-0.100000)"
fill="#000000" stroke="none">
<path d="M393 942 c-178 -64 -271 -234 -229 -416 29 -124 111 -253 260 -411
l76 -80 76 80 c149 158 231 287 260 411 50 217 -97 416 -319 430 -54 4 -85 0
-124 -14z m201 -204 c19 -18 37 -43 41 -55 10 -36 -35 -31 -63 6 -24 33 -53
41 -95 28 -36 -12 -57 -54 -57 -117 0 -44 5 -56 29 -81 40 -40 83 -39 122 2
32 34 66 36 61 4 -5 -30 -57 -73 -98 -81 -50 -9 -109 11 -133 45 -27 38 -41
107 -32 156 16 87 58 125 137 125 48 0 59 -4 88 -32z"/>
</g>
</svg>
